<svg xmlns:xlink="http://www.w3.org/1999/xlink" xmlns="http://www.w3.org/2000/svg" version="1.1" viewBox="0.0 0.0 128.0 128.0" fill="none" stroke="none" stroke-linecap="square" stroke-miterlimit="10"><clipPath id="p.0"><path d="m0 0l128.0 0l0 128.0l-128.0 0l0 -128.0z" clip-rule="nonzero"/></clipPath><g clip-path="url(#p.0)"><path fill="#000000" fill-opacity="0.0" d="m0 0l128.0 0l0 128.0l-128.0 0z" fill-rule="evenodd"/><path fill="#efefef" d="m0 0l128.0 0l0 128.0l-128.0 0z" fill-rule="evenodd"/><path fill="#ffffff" d="m16.17323 13.937008l95.65355 0l0 100.12599l-95.65355 0z" fill-rule="evenodd"/><path stroke="#000000" stroke-width="1.0" stroke-linejoin="round" stroke-linecap="butt" d="m16.17323 13.937008l95.65355 0l0 100.12599l-95.65355 0z" fill-rule="evenodd"/><path fill="#00ff00" d="m45.939632 46.013123l62.45669 0l0 43.244095l-62.45669 0z" fill-rule="evenodd"/><path stroke="#000000" stroke-width="1.0" stroke-linejoin="round" stroke-linecap="butt" d="m45.939632 46.013123l62.45669 0l0 43.244095l-62.45669 0z" fill-rule="evenodd"/><path fill="#ff00ff" d="m0 64.0l64.0 0l0 64.0l-64.0 0z" fill-rule="evenodd"/><path fill="#000000" d="m12.192276 108.0l0 -23.859375l17.6875 0l0 4.03125l-12.875 0l0 5.296875l11.984375 0l0 4.015625l-11.984375 0l0 6.5l13.328125 0l0 4.015625l-18.140625 0zm19.807724 0l8.15625 -12.453125l-7.390625 -11.40625l5.625 0l4.796875 7.671875l4.671875 -7.671875l5.59375 0l-7.421875 11.59375l8.15625 12.265625l-5.8125 0l-5.296875 -8.25l-5.296875 8.25l-5.78125 0z" fill-rule="nonzero"/><path fill="#000000" fill-opacity="0.0" d="m82.10499 66.03412l-52.472443 -39.90551" fill-rule="evenodd"/><path stroke="#000000" stroke-width="8.0" stroke-linejoin="round" stroke-linecap="butt" d="m82.10499 66.03412l-14.265938 -10.849304" fill-rule="evenodd"/><path fill="#000000" stroke="#000000" stroke-width="8.0" stroke-linecap="butt" d="m75.83789 44.666992l-36.896317 -11.458828l20.898628 32.494473z" fill-rule="evenodd"/></g></svg>